<?xml version="1.0" encoding="UTF-8"?>
<svg version="1.1" xmlns="http://www.w3.org/2000/svg" width="1024" height="1024" viewBox="0 0 1024 1024">
<path d="M0 0 C1.19984024 -0.0051059 1.19984024 -0.0051059 2.42391968 -0.01031494 C26.24770962 -0.0682722 50.28107406 3.17701718 72.75 11.3125 C73.49507812 11.5801416 74.24015625 11.8477832 75.0078125 12.12353516 C99.88198034 21.21020002 122.71453244 33.96283471 142.75 51.3125 C143.65878906 52.09882813 144.56757812 52.88515625 145.50390625 53.6953125 C149.66262123 57.36369864 153.31552311 60.9504308 156.75 65.3125 C151.57139537 70.61757014 146.37352908 75.90318299 141.16162109 81.17553711 C139.3898365 82.97251218 137.62255919 84.77394274 135.85986328 86.57983398 C133.32967779 89.17046517 130.78387115 91.74479491 128.234375 94.31640625 C127.44569031 95.13089737 126.65700562 95.94538849 125.84442139 96.78456116 C125.10395569 97.52540451 124.36348999 98.26624786 123.60058594 99.02954102 C122.95216736 99.68906265 122.30374878 100.34858429 121.63568115 101.02809143 C119.75 102.3125 119.75 102.3125 117.61016846 102.10899353 C115.26270126 101.1038467 114.13277501 99.84712013 112.4375 97.9375 C102.85406694 88.01624648 90.8519145 80.74696863 78.75 74.3125 C77.75484375 73.78011719 76.7596875 73.24773437 75.734375 72.69921875 C63.52488365 66.38227603 51.16021877 61.64255339 37.734375 58.75048828 C35.86642552 58.33819727 34.01061238 57.87198118 32.15625 57.40234375 C10.23311152 52.53305163 -15.64726578 53.44656664 -37.25 59.3125 C-38.19955566 59.5703125 -39.14911133 59.828125 -40.12744141 60.09375 C-61.1694091 66.03986941 -81.17365607 75.55455242 -98.25 89.3125 C-98.83040039 89.77624023 -99.41080078 90.23998047 -100.00878906 90.71777344 C-132.35898235 116.82464101 -153.14470274 154.98626946 -158.25 196.3125 C-158.40394955 199.19680804 -158.43711744 202.07678717 -158.453125 204.96484375 C-158.46167511 206.19153526 -158.46167511 206.19153526 -158.47039795 207.44300842 C-158.47980258 209.17008186 -158.48636377 210.89717287 -158.49023438 212.62426758 C-158.49985658 215.21143797 -158.53088819 217.79778392 -158.5625 220.38476562 C-158.8155578 260.28474069 -141.36545089 297.65427346 -114.25 326.3125 C-113.48171875 327.13363281 -112.7134375 327.95476562 -111.921875 328.80078125 C-84.1685508 357.58366425 -44.25361456 374.2165791 -4.51171875 375.56640625 C38.66674729 376.34044063 80.2534911 361.3646917 112.13500977 332.0703125 C116.32237485 328.3125 116.32237485 328.3125 120.75 328.3125 C122.59771729 329.67919922 122.59771729 329.67919922 124.50878906 331.6171875 C125.58945648 332.69830811 125.58945648 332.69830811 126.69195557 333.80126953 C127.45876648 334.58872559 128.22557739 335.37618164 129.015625 336.1875 C129.80902283 336.98655762 130.60242065 337.78561523 131.41986084 338.60888672 C133.95609402 341.16754123 136.47808273 343.73974149 139 346.3125 C140.71522667 348.04778402 142.43136147 349.78217091 144.1484375 351.515625 C148.35955802 355.77088942 152.55906031 360.03736349 156.75 364.3125 C154.91704583 368.29819584 152.33756747 370.89324352 149.125 373.8125 C148.55160889 374.33513428 147.97821777 374.85776855 147.38745117 375.39624023 C122.95474457 397.28052939 93.21828719 413.23804775 61.75 422.3125 C60.92604736 422.56249756 60.10209473 422.81249512 59.25317383 423.07006836 C52.91156788 424.98375051 46.44064465 426.21912646 39.9375 427.4375 C39.04901367 427.60822021 38.16052734 427.77894043 37.24511719 427.95483398 C13.03887873 432.34861182 -13.11772907 431.9050692 -37.25 427.3125 C-38.1565332 427.14089355 -39.06306641 426.96928711 -39.99707031 426.79248047 C-81.37288527 418.69532466 -118.40843546 398.79788789 -148.77441406 369.72509766 C-150.14127014 368.41658851 -151.5193898 367.11987271 -152.8984375 365.82421875 C-175.04858082 344.47762952 -190.28417539 316.77308111 -201.25 288.3125 C-201.7447583 287.04817139 -201.7447583 287.04817139 -202.24951172 285.75830078 C-204.73932125 279.19872273 -206.46638125 272.67951643 -207.875 265.8125 C-208.07867187 264.85730469 -208.28234375 263.90210938 -208.4921875 262.91796875 C-209.0969775 260.05296997 -209.67745929 257.18410315 -210.25 254.3125 C-210.43401367 253.41789063 -210.61802734 252.52328125 -210.80761719 251.6015625 C-215.93012935 225.46822875 -215.51873356 195.13947621 -209.25 169.3125 C-209.06808105 168.50973633 -208.88616211 167.70697266 -208.69873047 166.87988281 C-200.02792653 128.74074343 -181.11922717 94.60956049 -154.25 66.3125 C-153.77868652 65.81395508 -153.30737305 65.31541016 -152.82177734 64.80175781 C-144.88883548 56.46596135 -136.51078746 49.13553317 -127.25 42.3125 C-126.24839844 41.56613281 -125.24679687 40.81976563 -124.21484375 40.05078125 C-99.09412045 21.99627431 -70.55890047 9.50408708 -40.25 3.3125 C-39.57114746 3.16917236 -38.89229492 3.02584473 -38.19287109 2.87817383 C-25.51553922 0.33467064 -12.88084992 0.01287159 0 0 Z " fill="#2A393D" transform="translate(521.25,235.6875)"/>
<path d="M0 0 C6.50705587 3.37402897 8.93438293 7.35752758 11.25 14.125 C14.46297053 22.73808366 19.15753344 29.82509115 26 36 C26.5259375 36.52980469 27.051875 37.05960938 27.59375 37.60546875 C38.5173188 48.08931762 53.06677312 52.96202359 68 53.375 C86.93489405 52.89218119 104.00737906 45.03722061 117.08984375 31.390625 C122.30355175 24.86549352 126.29109257 17.27173168 129.125 9.4375 C130.94522097 4.67511153 132.47985538 2.51119145 137 0 C141.6385273 -0.75943786 145.57136373 -0.57753381 149.9375 1.1875 C153.39015032 4.22164725 154.83366737 6.58617262 155.375 11.1875 C153.50455235 30.20371776 139.76591765 48.04943682 125.578125 60.09375 C120.01305199 64.20853126 114.0534994 67.65983468 108 71 C106.82824219 71.65162109 106.82824219 71.65162109 105.6328125 72.31640625 C87.21966608 81.45133298 62.80337895 82.03569366 43.390625 76.1875 C42.27171875 75.795625 41.1528125 75.40375 40 75 C38.96359375 74.649375 37.9271875 74.29875 36.859375 73.9375 C14.65524907 65.56735829 -2.50788216 48.51965636 -12.5546875 27.2578125 C-18.69480433 13.41765727 -18.69480433 13.41765727 -16 6 C-11.98804488 0.23133081 -6.77371633 -1.45591717 0 0 Z " fill="#7A937E" transform="translate(454,476)"/>
<path d="M0 0 C7.46804075 4.52146685 13.11732367 11.51701496 15.375 20 C16.56101751 29.03574167 15.03404029 36.76503642 9.796875 44.2578125 C5.37608342 49.65436438 0.39703539 53.69917698 -6.625 55 C-24.05302975 56.15055175 -24.05302975 56.15055175 -30.625 51 C-36.68384975 45.62965591 -42.05851177 39.51302287 -43.09375 31.265625 C-43.12799352 29.92748088 -43.13765023 28.58852242 -43.125 27.25 C-43.11927979 26.54625244 -43.11355957 25.84250488 -43.10766602 25.11743164 C-42.82875797 16.92767712 -39.82046 11.12564449 -34.3125 5.125 C-33.11377664 4.04843953 -31.88494192 3.00422432 -30.625 2 C-29.81869141 1.34837891 -29.81869141 1.34837891 -28.99609375 0.68359375 C-21.25668557 -4.28555647 -8.20420436 -3.71202498 0 0 Z " fill="#2C3B3F" transform="translate(472.625,377)"/>
<path d="M0 0 C38.05263158 0 38.05263158 0 45.9375 6.375 C46.9584375 7.674375 46.9584375 7.674375 48 9 C48.763125 9.825 49.52625 10.65 50.3125 11.5 C53.41529304 17.93542261 53.04680452 25.74572313 50.8125 32.5 C47.54197486 38.81549683 43.16604867 41.86092068 37 45 C33.95123623 45.96632828 31.20539992 46.1171061 28.015625 46.09765625 C27.17290039 46.09515869 26.33017578 46.09266113 25.46191406 46.09008789 C24.40198242 46.08098389 23.34205078 46.07187988 22.25 46.0625 C18.8675 46.041875 15.485 46.02125 12 46 C12 52.93 12 59.86 12 67 C8.04 67 4.08 67 0 67 C0 44.89 0 22.78 0 0 Z " fill="#324348" transform="translate(521,726)"/>
<path d="M0 0 C6.70875517 3.68163394 10.45343602 9.25062204 13.8125 15.96875 C14.66377557 25.0165932 14.27191813 32.48272969 8.8125 39.96875 C3.94639405 45.53170121 -1.69505519 48.46544705 -9.01171875 49.28515625 C-16.96406246 49.60080626 -24.1006414 48.52354588 -30.2578125 43.16796875 C-36.77673229 36.14444638 -38.79312903 29.6469436 -38.53125 20.12109375 C-37.74668434 12.92627007 -34.16971176 8.50550628 -29.1640625 3.51171875 C-21.10596427 -2.7786939 -9.55314371 -3.09072297 0 0 Z " fill="#2E3F44" transform="translate(672.1875,744.03125)"/>
<path d="M0 0 C4.28068452 3.68003511 7.20102817 8.37261577 8.9765625 13.69921875 C8.9765625 17.65921875 8.9765625 21.61921875 8.9765625 25.69921875 C-3.2334375 25.69921875 -15.4434375 25.69921875 -28.0234375 25.69921875 C-25.21774326 31.31060723 -23.49635845 33.96275827 -18.0234375 36.69921875 C-12.78513748 37.45996772 -9.1122513 37.11302453 -4.7109375 34.07421875 C-3.78861328 33.34332031 -3.78861328 33.34332031 -2.84765625 32.59765625 C-2.24566406 32.30117188 -1.64367187 32.0046875 -1.0234375 31.69921875 C1.97763582 32.76037175 3.85072558 34.36079814 5.9765625 36.69921875 C4.58458921 40.08178596 3.1740129 41.53610557 0.0390625 43.38671875 C-0.65058594 43.80308594 -1.34023438 44.21945312 -2.05078125 44.6484375 C-8.29824005 47.97629179 -16.08647439 47.5517749 -22.85546875 46.0859375 C-29.97881425 43.60206741 -34.4446757 39.2857308 -38.1171875 32.75390625 C-40.91940268 26.34513634 -41.05964727 19.22230559 -38.9609375 12.57421875 C-36.31034201 6.38112123 -31.24864655 0.41277141 -25.0234375 -2.30078125 C-16.69729432 -4.53462454 -7.40818285 -4.70082875 0 0 Z " fill="#314348" transform="translate(499.0234375,746.30078125)"/>
<path d="M0 0 C2.89869699 2.32344011 4.86584891 4.91529158 6.515625 8.21484375 C6.60253501 11.05913732 6.63116302 13.87863551 6.61328125 16.72265625 C6.6118663 17.56327606 6.61045135 18.40389587 6.60899353 19.26998901 C6.60338737 21.9599765 6.59083386 24.64988134 6.578125 27.33984375 C6.57311079 29.16145713 6.56854775 30.98307182 6.56445312 32.8046875 C6.55341594 37.27477152 6.5361472 41.74479361 6.515625 46.21484375 C2.885625 46.21484375 -0.744375 46.21484375 -4.484375 46.21484375 C-4.979375 44.23484375 -4.979375 44.23484375 -5.484375 42.21484375 C-6.5775 42.85421875 -7.670625 43.49359375 -8.796875 44.15234375 C-14.58926801 47.54034721 -19.87000649 47.8624043 -26.484375 47.21484375 C-30.65305593 45.94975959 -33.53372175 43.58853462 -35.921875 39.96484375 C-37.95551983 35.85353581 -38.06163409 32.76075906 -37.484375 28.21484375 C-34.61668281 22.47945936 -30.54775725 19.23597117 -24.484375 17.21484375 C-22.93015771 17.13377689 -21.37270473 17.10727477 -19.81640625 17.1171875 C-18.92373047 17.12041016 -18.03105469 17.12363281 -17.11132812 17.12695312 C-15.71817383 17.13952148 -15.71817383 17.13952148 -14.296875 17.15234375 C-13.35650391 17.15685547 -12.41613281 17.16136719 -11.44726562 17.16601562 C-9.12623788 17.17779749 -6.80533856 17.19424817 -4.484375 17.21484375 C-5.58223925 11.8069699 -5.58223925 11.8069699 -9.484375 8.21484375 C-12.77993149 7.89587202 -12.77993149 7.89587202 -16.421875 7.96484375 C-17.64777344 7.9596875 -18.87367188 7.95453125 -20.13671875 7.94921875 C-23.27887161 8.19853776 -24.81221599 8.70369176 -27.484375 10.21484375 C-29.734375 9.83984375 -29.734375 9.83984375 -31.484375 9.21484375 C-32.144375 6.90484375 -32.804375 4.59484375 -33.484375 2.21484375 C-23.96124995 -3.57372246 -10.08634484 -6.16144109 0 0 Z " fill="#334448" transform="translate(403.484375,745.78515625)"/>
<path d="M0 0 C3.37636448 2.33096293 6.689289 4.69132531 9.8671875 7.2890625 C8.25335993 10.69118549 6.28114984 13.39230769 3.8671875 16.2890625 C1.03903973 14.92571772 -1.61032306 13.41270121 -4.2578125 11.7265625 C-10.23545357 7.92568507 -15.01354211 7.45254823 -22.1328125 8.2890625 C-24.56408971 9.3755395 -26.49432062 10.58894208 -28.609375 12.1953125 C-30.1328125 13.2890625 -30.1328125 13.2890625 -32.1328125 13.2890625 C-32.4009375 13.8253125 -32.6690625 14.3615625 -32.9453125 14.9140625 C-33.80761024 16.63865799 -34.72406303 18.33650634 -35.671875 20.015625 C-38.50905809 26.37273578 -38.4664536 33.77851583 -35.99609375 40.28125 C-33.21380333 45.20320208 -30.3320661 48.79775348 -25.1328125 51.2890625 C-22.33236204 52.14556903 -22.33236204 52.14556903 -19.1328125 52.2890625 C-18.3903125 52.37542969 -17.6478125 52.46179688 -16.8828125 52.55078125 C-10.37044775 53.0086819 -6.66002655 51.33101114 -1.359375 47.6015625 C0.8671875 46.2890625 0.8671875 46.2890625 4.8671875 46.2890625 C7.6171875 48.7890625 7.6171875 48.7890625 9.8671875 51.2890625 C7.29492796 57.27376685 1.78403451 60.76779625 -4.1328125 63.1640625 C-13.2024589 65.74867676 -23.12589948 65.75289475 -31.6953125 61.7265625 C-40.27865024 56.74869184 -46.48357669 50.03166779 -49.73828125 40.51953125 C-51.49929649 30.5636926 -51.19868828 20.72177598 -46.03125 11.87890625 C-42.89455476 7.59983435 -39.4699661 4.33165255 -35.1328125 1.2890625 C-34.18728516 0.6084375 -34.18728516 0.6084375 -33.22265625 -0.0859375 C-24.48398689 -5.08939033 -8.73818929 -4.87794503 0 0 Z " fill="#2F4045" transform="translate(349.1328125,728.7109375)"/>
<path d="M0 0 C3.00358541 2.41955491 3.18702117 3.25618697 3.625 7.125 C3.25 10.8125 3.25 10.8125 1.25 13.75 C-1.93341093 15.93859502 -3.91228191 16.42261691 -7.765625 16.18359375 C-10.73725126 15.62787624 -13.12415399 14.27130334 -15.75 12.8125 C-25.93918432 10.12922726 -37.51062334 10.68767676 -46.75 15.8125 C-47.61625 16.39 -48.4825 16.9675 -49.375 17.5625 C-52.84398149 19.38827973 -55.91950343 19.62339141 -59.75 18.8125 C-62.75 16.75 -62.75 16.75 -64.75 13.8125 C-65.39494482 9.79950998 -65.36216649 7.756689 -63.13671875 4.32421875 C-60.3257176 1.36599659 -57.66523054 -0.09440219 -54 -1.875 C-52.82953125 -2.45636719 -51.6590625 -3.03773438 -50.453125 -3.63671875 C-34.38306615 -10.73933016 -14.77792202 -9.14988163 0 0 Z " fill="#7D9680" transform="translate(617.75,397.1875)"/>
<path d="M0 0 C3.63 0 7.26 0 11 0 C11 4.62 11 9.24 11 14 C15.29 14 19.58 14 24 14 C24 16.97 24 19.94 24 23 C19.71 23 15.42 23 11 23 C11.1134127 27.45890972 11.24017333 31.91673148 11.375 36.375 C11.4059375 37.64601563 11.436875 38.91703125 11.46875 40.2265625 C11.50742187 41.43828125 11.54609375 42.65 11.5859375 43.8984375 C11.63306885 45.57945557 11.63306885 45.57945557 11.68115234 47.29443359 C11.73411203 50.14710412 11.73411203 50.14710412 14 52 C16.44012949 52.24287489 16.44012949 52.24287489 19.125 52.125 C20.03507813 52.10695313 20.94515625 52.08890625 21.8828125 52.0703125 C22.58148437 52.04710937 23.28015625 52.02390625 24 52 C24.33 54.64 24.66 57.28 25 60 C20.82285749 63.45694552 16.85888006 63.5054951 11.66015625 63.3515625 C7.88385411 62.85249173 5.77809869 61.56974129 3 59 C-0.09087679 54.86700616 -0.35599793 51.83583234 -0.29296875 46.73046875 C-0.28872391 46.04946609 -0.28447906 45.36846344 -0.28010559 44.66682434 C-0.2634061 42.50663541 -0.22577312 40.34740358 -0.1875 38.1875 C-0.17244174 36.71681042 -0.15875534 35.24610611 -0.14648438 33.77539062 C-0.11353214 30.18328643 -0.06181173 26.59173674 0 23 C-2.31 23 -4.62 23 -7 23 C-7 20.03 -7 17.06 -7 14 C-4.69 14 -2.38 14 0 14 C0 9.38 0 4.76 0 0 Z " fill="#2F3F44" transform="translate(700,730)"/>
<path d="M0 0 C3.63 0 7.26 0 11 0 C11 22.44 11 44.88 11 68 C7.37 68 3.74 68 0 68 C0 45.56 0 23.12 0 0 Z " fill="#2C3D41" transform="translate(611,724)"/>
<path d="M0 0 C4.33823954 1.77747315 7.24247507 3.95840323 10 7.75 C11.69250799 13.25065095 11.79010116 17.90623192 9.75 23.3125 C7.26491462 27.12888112 5.3727088 29.5424304 1 31 C-3.88156423 31.51252223 -7.85085989 31.51072894 -12.375 29.5 C-16.69543012 25.38530464 -19.15364842 20.90151749 -19.5 14.875 C-18.74957454 9.05920265 -16.23073997 6.31660555 -12.3125 2.125 C-8.00363755 -0.63917591 -4.98361964 -1.04386627 0 0 Z " fill="#F9F9F9" transform="translate(664,752)"/>
<path d="M0 0 C3.63 0 7.26 0 11 0 C11.33 2.64 11.66 5.28 12 8 C12.556875 7.236875 13.11375 6.47375 13.6875 5.6875 C16.4724504 2.45093603 18.69033949 0.19784801 23.09765625 -0.1796875 C25.06600343 -0.18663052 27.03418022 -0.09995694 29 0 C29 3.63 29 7.26 29 11 C27.63875 11.061875 26.2775 11.12375 24.875 11.1875 C19.73594939 11.75400952 17.54452227 13.2825742 14 17 C11.77880834 20.4479626 11.69646404 23.46298524 11.5859375 27.515625 C11.52792969 29.39121094 11.52792969 29.39121094 11.46875 31.3046875 C11.42234375 33.25761719 11.42234375 33.25761719 11.375 35.25 C11.33632813 36.56742188 11.29765625 37.88484375 11.2578125 39.2421875 C11.16353818 42.49465161 11.0779325 45.74710996 11 49 C7.37 49 3.74 49 0 49 C0 32.83 0 16.66 0 0 Z " fill="#2F3F42" transform="translate(425,743)"/>
<path d="M0 0 C3.17625 -0.061875 6.3525 -0.12375 9.625 -0.1875 C11.1092749 -0.22846802 11.1092749 -0.22846802 12.62353516 -0.27026367 C17.84402898 -0.31933441 21.50410849 0.03356525 26 3 C28.38612004 5.86334405 28.9572247 7.67001914 29.4375 11.375 C28.87927584 16.00028593 27.68446938 18.19700171 25 22 C21.96211531 23.97146227 19.59797138 24.23899965 16.015625 24.1953125 C15.17290039 24.19031738 14.33017578 24.18532227 13.46191406 24.18017578 C11.8720166 24.15286377 11.8720166 24.15286377 10.25 24.125 C6.8675 24.08375 3.485 24.0425 0 24 C0 16.08 0 8.16 0 0 Z " fill="#FBFCFB" transform="translate(533,737)"/>
<path d="M0 0 C3.96 0 7.92 0 12 0 C12 16.5 12 33 12 50 C8.04 50 4.08 50 0 50 C0 33.5 0 17 0 0 Z " fill="#394A4D" transform="translate(584,743)"/>
<path d="M0 0 C3.33152829 1.66576414 5.2734109 2.94314313 7.375 6 C8 8 8 8 8 12 C-0.58 12 -9.16 12 -18 12 C-16.96418824 5.78512943 -16.49754628 4.83936878 -12 1 C-8.28986322 -0.85506839 -4.04907177 -0.45334699 0 0 Z " fill="#F9FAF9" transform="translate(489,752)"/>
<path d="M0 0 C1.20366211 0.00966797 1.20366211 0.00966797 2.43164062 0.01953125 C3.26501953 0.03628906 4.09839844 0.05304687 4.95703125 0.0703125 C6.22450195 0.08384766 6.22450195 0.08384766 7.51757812 0.09765625 C9.60168368 0.12120547 11.68564342 0.15707603 13.76953125 0.1953125 C14.06640625 6.8359375 14.06640625 6.8359375 11.39453125 10.0703125 C6.50139635 14.03142171 1.90477507 13.82874475 -4.23046875 13.1953125 C-6.98046875 11.6328125 -6.98046875 11.6328125 -8.23046875 9.1953125 C-8.16796875 5.5703125 -8.16796875 5.5703125 -7.23046875 2.1953125 C-4.12961304 0.12807536 -3.50115194 -0.04966173 0 0 Z " fill="#F9F9F7" transform="translate(385.23046875,770.8046875)"/>
<path d="M0 0 C3.4375 1 3.4375 1 5.4375 2.6875 C6.82656225 5.89970645 6.49271374 7.6936636 5.4375 11 C3.31318495 13.27605184 1.99643694 13.90218604 -1.0625 14.4375 C-4.46084723 13.84278924 -5.57491034 12.79734842 -7.5625 10 C-8.17225382 6.34147708 -8.00793026 4.69487121 -6 1.5625 C-3.5625 0 -3.5625 0 0 0 Z " fill="#37464B" transform="translate(590.5625,722)"/>
<path d="M0 0 C-1.48229451 3.43605181 -3.4295174 5.68701591 -6.0625 8.328125 C-7.25746094 9.52695312 -7.25746094 9.52695312 -8.4765625 10.75 C-9.30929687 11.575 -10.14203125 12.4 -11 13.25 C-11.83273437 14.09046875 -12.66546875 14.9309375 -13.5234375 15.796875 C-14.32007813 16.5909375 -15.11671875 17.385 -15.9375 18.203125 C-16.66839844 18.93176758 -17.39929688 19.66041016 -18.15234375 20.41113281 C-20 22 -20 22 -22 22 C-20.51770549 18.56394819 -18.5704826 16.31298409 -15.9375 13.671875 C-15.14085937 12.87265625 -14.34421875 12.0734375 -13.5234375 11.25 C-12.27433594 10.0125 -12.27433594 10.0125 -11 8.75 C-10.16726563 7.90953125 -9.33453125 7.0690625 -8.4765625 6.203125 C-7.67992187 5.4090625 -6.88328125 4.615 -6.0625 3.796875 C-5.33160156 3.06823242 -4.60070312 2.33958984 -3.84765625 1.58886719 C-2 0 -2 0 0 0 Z " fill="#314447" transform="translate(382,289)"/>
<path d="M0 0 C3.63 0 7.26 0 11 0 C11.33 2.64 11.66 5.28 12 8 C12.556875 7.236875 13.11375 6.47375 13.6875 5.6875 C16.01166722 2.9864408 17.76283407 1.45672467 21 0 C23.3125 0.3125 23.3125 0.3125 25 1 C23.948125 1.556875 22.89625 2.11375 21.8125 2.6875 C19.11156996 4.20984238 17.50440101 5.49559899 15.25 7.75 C14.5075 8.4925 13.765 9.235 13 10 C12.01 10 11.02 10 10 10 C10 7.03 10 4.06 10 1 C6.7 1 3.4 1 0 1 C0 0.67 0 0.34 0 0 Z " fill="#49595D" transform="translate(425,743)"/>
<path d="M0 0 C12.21 0 24.42 0 37 0 C37 0.33 37 0.66 37 1 C35.47076904 1.02187378 35.47076904 1.02187378 33.91064453 1.04418945 C30.13456834 1.10208466 26.35909404 1.17931665 22.58349609 1.26245117 C20.94817866 1.29574214 19.31274518 1.32376106 17.67724609 1.34643555 C15.32859757 1.37990628 12.98101663 1.43221436 10.6328125 1.48828125 C9.53273361 1.49786613 9.53273361 1.49786613 8.41043091 1.50764465 C6.12675244 1.53994543 6.12675244 1.53994543 3 2 C2.01 3.485 2.01 3.485 1 5 C0.67 3.35 0.34 1.7 0 0 Z " fill="#EBEBEA" transform="translate(471,772)"/>
<path d="M0 0 C0.33 0.66 0.66 1.32 1 2 C-0.32 3.32 -1.64 4.64 -3 6 C-3.33 4.68 -3.66 3.36 -4 2 C-2.68 1.34 -1.36 0.68 0 0 Z M-5 6 C-5 9 -5 9 -5 9 Z " fill="#27373D" transform="translate(307,741)"/>
<path d="M0 0 C-1.15173355 2.46800047 -2.04783565 4.04783565 -4 6 C-4.99 5.67 -5.98 5.34 -7 5 C-2.25 0 -2.25 0 0 0 Z " fill="#3E5353" transform="translate(312,733)"/>
</svg>
